<svg width="1940" height="343" viewBox="0 0 1940 343" fill="none" xmlns="http://www.w3.org/2000/svg">
<g clip-path="url(#clip0_15_19)">
<rect width="1940" height="343" fill="white"/>
<rect x="-3.89996" width="80.3148" height="20.5514" rx="3" fill="#E14646" fill-opacity="0.3"/>
<path d="M3.75291 14V3.81818H7.19325C7.98871 3.81818 8.64164 3.95407 9.15206 4.22585C9.66248 4.49432 10.0403 4.86387 10.2856 5.33452C10.5308 5.80516 10.6535 6.34044 10.6535 6.94034C10.6535 7.54025 10.5308 8.07221 10.2856 8.53622C10.0403 9.00024 9.66413 9.36482 9.15703 9.62997C8.64993 9.89181 8.00197 10.0227 7.21314 10.0227H4.42905V8.90909H7.17337C7.71693 8.90909 8.15443 8.82955 8.48587 8.67045C8.82062 8.51136 9.06257 8.28598 9.21172 7.99432C9.36418 7.69934 9.44041 7.34801 9.44041 6.94034C9.44041 6.53267 9.36418 6.17637 9.21172 5.87145C9.05926 5.56652 8.81565 5.3312 8.4809 5.16548C8.14614 4.99645 7.70367 4.91193 7.15348 4.91193H4.98587V14H3.75291ZM8.54553 9.42614L11.0512 14H9.61939L7.15348 9.42614H8.54553ZM15.6686 14.1591C14.9328 14.1591 14.2981 13.9967 13.7645 13.6719C13.2342 13.3438 12.8248 12.8864 12.5365 12.2997C12.2514 11.7098 12.1089 11.0237 12.1089 10.2415C12.1089 9.45928 12.2514 8.76989 12.5365 8.1733C12.8248 7.57339 13.2259 7.10606 13.7396 6.77131C14.2566 6.43324 14.8599 6.2642 15.5493 6.2642C15.947 6.2642 16.3397 6.33049 16.7275 6.46307C17.1153 6.59564 17.4683 6.81108 17.7865 7.10938C18.1047 7.40436 18.3582 7.79545 18.5471 8.28267C18.736 8.76989 18.8305 9.36979 18.8305 10.0824V10.5795H12.9441V9.56534H17.6373C17.6373 9.13447 17.5511 8.75 17.3788 8.41193C17.2098 8.07386 16.9678 7.80705 16.6529 7.61151C16.3414 7.41596 15.9735 7.31818 15.5493 7.31818C15.0819 7.31818 14.6776 7.43419 14.3362 7.66619C13.9981 7.89489 13.7379 8.19318 13.5556 8.56108C13.3734 8.92898 13.2822 9.32339 13.2822 9.74432V10.4205C13.2822 10.9972 13.3816 11.486 13.5805 11.8871C13.7827 12.2848 14.0627 12.5881 14.4207 12.7969C14.7787 13.0024 15.1946 13.1051 15.6686 13.1051C15.9768 13.1051 16.2552 13.062 16.5038 12.9759C16.7557 12.8864 16.9728 12.7538 17.1551 12.5781C17.3374 12.3991 17.4782 12.1771 17.5777 11.9119L18.7112 12.2301C18.5919 12.6146 18.3913 12.9527 18.1096 13.2443C17.8279 13.5327 17.4799 13.758 17.0656 13.9205C16.6513 14.0795 16.1856 14.1591 15.6686 14.1591ZM23.4988 14.1591C22.8625 14.1591 22.3007 13.9983 21.8135 13.6768C21.3262 13.352 20.9451 12.8946 20.67 12.3047C20.3949 11.7114 20.2574 11.0104 20.2574 10.2017C20.2574 9.39962 20.3949 8.7036 20.67 8.11364C20.9451 7.52367 21.3279 7.06794 21.8184 6.74645C22.309 6.42495 22.8757 6.2642 23.5187 6.2642C24.0159 6.2642 24.4086 6.34706 24.697 6.51278C24.9886 6.67519 25.2107 6.8608 25.3632 7.0696C25.519 7.27509 25.6399 7.44413 25.7261 7.5767H25.8255V3.81818H26.9988V14H25.8653V12.8267H25.7261C25.6399 12.9659 25.5173 13.1416 25.3582 13.3537C25.1991 13.5625 24.9721 13.7498 24.6771 13.9155C24.3821 14.0779 23.9894 14.1591 23.4988 14.1591ZM23.6579 13.1051C24.1286 13.1051 24.5263 12.9825 24.8511 12.7372C25.1759 12.4886 25.4228 12.1456 25.5919 11.7081C25.7609 11.2673 25.8454 10.7585 25.8454 10.1818C25.8454 9.61174 25.7626 9.11293 25.5968 8.68537C25.4311 8.2545 25.1859 7.91974 24.861 7.68111C24.5362 7.43916 24.1352 7.31818 23.6579 7.31818C23.1608 7.31818 22.7465 7.44579 22.415 7.70099C22.0869 7.95289 21.84 8.29593 21.6743 8.73011C21.5119 9.16098 21.4306 9.64489 21.4306 10.1818C21.4306 10.7254 21.5135 11.2192 21.6792 11.6634C21.8483 12.1042 22.0968 12.4555 22.425 12.7173C22.7564 12.9759 23.1674 13.1051 23.6579 13.1051ZM36.5691 6.36364V7.35795H32.6118V6.36364H36.5691ZM33.7652 4.53409H34.9385V11.8125C34.9385 12.1439 34.9865 12.3925 35.0826 12.5582C35.1821 12.7206 35.308 12.83 35.4605 12.8864C35.6163 12.9394 35.7803 12.9659 35.9527 12.9659C36.0819 12.9659 36.188 12.9593 36.2708 12.946C36.3537 12.9295 36.42 12.9162 36.4697 12.9062L36.7083 13.9602C36.6288 13.9901 36.5178 14.0199 36.3752 14.0497C36.2327 14.0829 36.0521 14.0994 35.8333 14.0994C35.5019 14.0994 35.1771 14.0282 34.8589 13.8857C34.544 13.7431 34.2822 13.526 34.0734 13.2344C33.8679 12.9427 33.7652 12.5748 33.7652 12.1307V4.53409ZM40.5812 14.179C40.0973 14.179 39.6582 14.0878 39.2637 13.9055C38.8693 13.7199 38.5561 13.4531 38.3241 13.1051C38.0921 12.7538 37.9761 12.3295 37.9761 11.8324C37.9761 11.3949 38.0623 11.0402 38.2346 10.7685C38.407 10.4934 38.6373 10.2779 38.9257 10.1222C39.214 9.96638 39.5322 9.85038 39.8802 9.77415C40.2315 9.6946 40.5845 9.63163 40.9392 9.58523C41.4032 9.52557 41.7794 9.48082 42.0677 9.45099C42.3594 9.41785 42.5715 9.36316 42.7041 9.28693C42.84 9.2107 42.9079 9.07812 42.9079 8.8892V8.84943C42.9079 8.3589 42.7737 7.97775 42.5052 7.70597C42.2401 7.43419 41.8374 7.2983 41.2971 7.2983C40.737 7.2983 40.2978 7.42093 39.9797 7.66619C39.6615 7.91146 39.4377 8.1733 39.3085 8.4517L38.1949 8.05398C38.3937 7.58996 38.6589 7.22869 38.9903 6.97017C39.3251 6.70833 39.6896 6.52604 40.0841 6.4233C40.4818 6.31723 40.8729 6.2642 41.2574 6.2642C41.5026 6.2642 41.7843 6.29403 42.1025 6.35369C42.424 6.41004 42.7339 6.5277 43.0322 6.70668C43.3338 6.88565 43.5841 7.15578 43.7829 7.51705C43.9818 7.87831 44.0812 8.36222 44.0812 8.96875V14H42.9079V12.9659H42.8483C42.7687 13.1316 42.6361 13.3089 42.4505 13.4979C42.2649 13.6868 42.018 13.8475 41.7098 13.9801C41.4015 14.1127 41.0253 14.179 40.5812 14.179ZM40.7602 13.125C41.2242 13.125 41.6153 13.0339 41.9335 12.8516C42.255 12.6693 42.4969 12.4339 42.6593 12.1456C42.8251 11.8572 42.9079 11.554 42.9079 11.2358V10.1619C42.8582 10.2216 42.7488 10.2763 42.5798 10.326C42.4141 10.3724 42.2218 10.4138 42.0031 10.4503C41.7877 10.4834 41.5772 10.5133 41.3717 10.5398C41.1695 10.563 41.0055 10.5829 40.8795 10.5994C40.5746 10.6392 40.2895 10.7038 40.0244 10.7933C39.7626 10.8795 39.5504 11.0104 39.388 11.1861C39.2289 11.3584 39.1494 11.5937 39.1494 11.892C39.1494 12.2997 39.3002 12.608 39.6018 12.8168C39.9067 13.0223 40.2929 13.125 40.7602 13.125ZM49.3051 17.0227C48.7384 17.0227 48.2511 16.9498 47.8435 16.804C47.4358 16.6615 47.0961 16.4725 46.8243 16.2372C46.5558 16.0052 46.342 15.7566 46.183 15.4915L47.1176 14.8352C47.2237 14.9744 47.3579 15.1335 47.5203 15.3125C47.6827 15.4948 47.9048 15.6522 48.1865 15.7848C48.4715 15.9207 48.8444 15.9886 49.3051 15.9886C49.9216 15.9886 50.4304 15.8395 50.8314 15.5412C51.2324 15.2429 51.433 14.7756 51.433 14.1392V12.5881H51.3335C51.2473 12.7273 51.1247 12.8996 50.9656 13.1051C50.8098 13.3073 50.5845 13.4879 50.2895 13.647C49.9978 13.8028 49.6034 13.8807 49.1063 13.8807C48.4898 13.8807 47.9363 13.7348 47.4457 13.4432C46.9585 13.1515 46.5724 12.7273 46.2874 12.1705C46.0056 11.6136 45.8648 10.9375 45.8648 10.142C45.8648 9.35985 46.0023 8.67874 46.2774 8.09872C46.5525 7.51539 46.9353 7.06463 47.4259 6.74645C47.9164 6.42495 48.4831 6.2642 49.1261 6.2642C49.6233 6.2642 50.0177 6.34706 50.3094 6.51278C50.6044 6.67519 50.8297 6.8608 50.9855 7.0696C51.1446 7.27509 51.2672 7.44413 51.3534 7.5767H51.4727V6.36364H52.6063V14.2188C52.6063 14.875 52.4571 15.4086 52.1588 15.8196C51.8638 16.2339 51.4661 16.5372 50.9656 16.7294C50.4685 16.925 49.915 17.0227 49.3051 17.0227ZM49.2653 12.8267C49.736 12.8267 50.1337 12.719 50.4585 12.5036C50.7833 12.2881 51.0303 11.9782 51.1993 11.5739C51.3683 11.1695 51.4528 10.6856 51.4528 10.1222C51.4528 9.57197 51.37 9.08641 51.2043 8.66548C51.0385 8.24455 50.7933 7.91477 50.4685 7.67614C50.1437 7.4375 49.7426 7.31818 49.2653 7.31818C48.7682 7.31818 48.3539 7.44413 48.0224 7.69602C47.6943 7.94792 47.4474 8.28598 47.2817 8.71023C47.1193 9.13447 47.0381 9.60511 47.0381 10.1222C47.0381 10.6525 47.1209 11.1214 47.2866 11.5291C47.4557 11.9335 47.7043 12.2517 48.0324 12.4837C48.3638 12.7124 48.7748 12.8267 49.2653 12.8267Z" fill="#37352F"/>
<path d="M-4.00006 0H1944V343H-4.00006V0Z" fill="#CCFFE2"/>
<path fill-rule="evenodd" clip-rule="evenodd" d="M1943.55 237.164V342.998H475.378C535.531 293.688 599.914 248.212 668.418 207.172C1082.63 -40.98 1540.57 29.3656 1943.55 237.164Z" fill="#FFECEA"/>
<path fill-rule="evenodd" clip-rule="evenodd" d="M1373.87 169.08C1373.93 113.585 1408.92 58.5251 1467.21 46.2885C1518.96 35.4248 1554.8 83.7469 1584.16 124.932C1611.76 163.654 1640.07 210.578 1611.16 248.223C1579.64 289.281 1518.29 294.69 1466.96 277.571C1415.17 260.296 1373.82 220.063 1373.87 169.08Z" fill="#0018A4"/>
<path fill-rule="evenodd" clip-rule="evenodd" d="M135.668 64.0355C166.613 63.0843 197.932 81.711 205.784 114.146C212.755 142.942 186.443 163.876 163.996 181.054C142.892 197.204 117.227 213.893 95.7255 198.369C72.2754 181.438 68.1763 147.165 76.8157 118.11C85.5344 88.7876 107.239 64.9093 135.668 64.0355Z" fill="white"/>
<rect x="-4" width="1944" height="100" fill="#0018A4"/>
<path d="M-53.559 39.532V45.928H-50.648C-48.844 45.928 -47.45 44.534 -47.45 42.73C-47.45 40.926 -48.844 39.532 -50.648 39.532H-53.559ZM-53.559 38.876H-50.648C-48.516 38.876 -46.794 40.598 -46.794 42.73C-46.794 44.862 -48.516 46.584 -50.648 46.584H-53.559V51.504H-50.648C-45.728 51.504 -41.874 47.65 -41.874 42.73C-41.874 37.81 -45.728 33.956 -50.648 33.956H-53.559V38.876ZM-59.135 52.16V62H-59.791V33.3H-50.648C-45.4 33.3 -41.218 37.482 -41.218 42.73C-41.218 47.978 -45.4 52.16 -50.648 52.16H-53.559V62H-54.215V52.16H-59.135ZM-59.135 39.532V45.928H-54.215V39.532H-59.135ZM-54.215 33.956H-59.135V38.876H-54.215V33.956ZM-54.215 46.584H-59.135V51.504H-54.215V46.584ZM-32.8867 62V42.689C-35.1007 44.042 -37.8067 46.83 -37.8067 51.709V62H-38.4627V40.27H-37.8067V47.732C-36.7817 44.903 -35.1827 43.304 -32.8867 41.951V40.27H-32.2307V41.582C-30.5907 40.762 -28.8277 40.352 -27.1057 40.352V41.008C-28.8277 41.008 -30.6317 41.459 -32.2307 42.32V49.044C-31.2877 47.199 -29.3197 45.928 -27.1057 45.928V46.584C-29.9757 46.584 -32.2307 48.88 -32.2307 51.709V62H-32.8867ZM-14.9627 62.492C-21.2357 62.492 -26.3197 57.408 -26.3197 51.135C-26.3197 44.862 -21.2357 39.778 -14.9627 39.778C-8.68966 39.778 -3.60566 44.862 -3.60566 51.135C-3.60566 57.408 -8.68966 62.492 -14.9627 62.492ZM-14.9627 61.836C-9.05866 61.836 -4.26166 57.039 -4.26166 51.135C-4.26166 45.231 -9.05866 40.434 -14.9627 40.434C-20.8667 40.434 -25.6637 45.231 -25.6637 51.135C-25.6637 57.039 -20.8667 61.836 -14.9627 61.836ZM-14.9627 56.916C-18.1607 56.916 -20.7437 54.333 -20.7437 51.135C-20.7437 47.937 -18.1607 45.354 -14.9627 45.354C-11.7647 45.354 -9.18166 47.937 -9.18166 51.135C-9.18166 54.333 -11.7647 56.916 -14.9627 56.916ZM-14.9627 56.26C-12.1337 56.26 -9.83766 53.964 -9.83766 51.135C-9.83766 48.306 -12.1337 46.01 -14.9627 46.01C-17.7917 46.01 -20.0877 48.306 -20.0877 51.135C-20.0877 53.964 -17.7917 56.26 -14.9627 56.26ZM6.05816 40.27V63.722C6.05816 67.699 2.77816 71.02 -1.19884 71.02H-4.39684V70.364H-1.19884C2.45016 70.364 5.40216 67.371 5.40216 63.722V40.27H6.05816ZM-4.39684 64.788H-1.19884C-0.624836 64.788 -0.173836 64.296 -0.173836 63.722V40.27H0.482164V63.722C0.482164 64.624 -0.214836 65.444 -1.19884 65.444H-4.39684V64.788ZM0.482164 31.25V38.138H-0.173836V31.25H0.482164ZM5.40216 38.138V31.25H6.05816V38.138H5.40216ZM8.99479 51.135C8.99479 44.862 14.0788 39.778 20.3518 39.778C25.3538 39.778 29.5768 42.976 31.0938 47.486L17.7688 55.563C18.5478 56.014 19.4088 56.26 20.3518 56.26C22.4018 56.26 24.1648 55.03 24.9848 53.308L25.5998 53.595C24.6978 55.563 22.6888 56.916 20.3518 56.916C19.1628 56.916 18.0558 56.547 17.1538 55.932L12.7258 58.638C14.6528 60.606 17.3588 61.836 20.3518 61.836C24.6158 61.836 28.3468 59.294 30.0688 55.645L30.6428 55.932C28.8388 59.827 24.9028 62.492 20.3518 62.492C14.0788 62.492 8.99479 57.408 8.99479 51.135ZM9.65079 51.135C9.65079 52.324 9.85579 53.431 10.1838 54.497L14.6118 51.791C14.5708 51.586 14.5708 51.34 14.5708 51.135C14.5708 47.937 17.1538 45.354 20.3518 45.354C21.5408 45.354 22.6888 45.723 23.5908 46.338L27.9778 43.673C26.0508 41.664 23.3448 40.434 20.3518 40.434C14.4478 40.434 9.65079 45.231 9.65079 51.135ZM10.4298 55.112C10.8808 56.219 11.4958 57.244 12.2748 58.146L16.5798 55.522C15.6778 54.743 15.0218 53.677 14.7348 52.488L10.4298 55.112ZM15.2268 51.135V51.422L22.9758 46.707C22.1968 46.256 21.2948 46.01 20.3518 46.01C17.5228 46.01 15.2268 48.306 15.2268 51.135ZM15.3088 52.16C15.5548 53.349 16.2518 54.415 17.1948 55.153L25.3948 50.151C25.1488 48.962 24.4928 47.896 23.5498 47.117L15.3088 52.16ZM24.1648 46.789C25.0668 47.568 25.7228 48.593 25.9688 49.823L30.3148 47.158C29.8638 46.051 29.2078 45.067 28.4698 44.165L24.1648 46.789ZM43.9521 45.846V46.502H42.7631C40.2621 46.502 38.1301 48.634 38.1301 51.135C38.1301 53.636 40.2621 55.768 42.7631 55.768H43.9521V56.424H42.7631C39.8931 56.424 37.4741 54.005 37.4741 51.135C37.4741 48.265 39.8931 45.846 42.7631 45.846H43.9521ZM43.9521 40.926H42.7631C37.1461 40.926 32.5541 45.518 32.5541 51.135C32.5541 56.752 37.1461 61.344 42.7631 61.344H43.9521V62H42.7631C36.7771 62 31.8981 57.121 31.8981 51.135C31.8981 45.149 36.7771 40.27 42.7631 40.27H43.9521V40.926ZM49.4711 40.926H46.2321V40.27H49.4711V33.3H50.1271V40.27H55.0471V33.3H55.7031V40.27H58.9421V40.926H55.7031V45.846H58.9421V46.502H55.7031V62H55.0471V46.502H50.1271V62H49.4711V46.502H46.2321V45.846H49.4711V40.926ZM55.0471 40.926H50.1271V45.846H55.0471V40.926ZM74.1127 33.956H68.2497V33.3H86.2077V33.956H80.3447V38.876H86.2077V39.532H80.3447V62H79.6887V39.532H74.7687V62H74.1127V39.532H68.2497V38.876H74.1127V33.956ZM79.6887 33.956H74.7687V38.876H79.6887V33.956ZM96.1457 62.492C89.8727 62.492 84.7887 57.408 84.7887 51.135C84.7887 44.862 89.8727 39.778 96.1457 39.778C102.419 39.778 107.503 44.862 107.503 51.135C107.503 57.408 102.419 62.492 96.1457 62.492ZM96.1457 61.836C102.05 61.836 106.847 57.039 106.847 51.135C106.847 45.231 102.05 40.434 96.1457 40.434C90.2417 40.434 85.4447 45.231 85.4447 51.135C85.4447 57.039 90.2417 61.836 96.1457 61.836ZM96.1457 56.916C92.9477 56.916 90.3647 54.333 90.3647 51.135C90.3647 47.937 92.9477 45.354 96.1457 45.354C99.3437 45.354 101.927 47.937 101.927 51.135C101.927 54.333 99.3437 56.916 96.1457 56.916ZM96.1457 56.26C98.9747 56.26 101.271 53.964 101.271 51.135C101.271 48.306 98.9747 46.01 96.1457 46.01C93.3167 46.01 91.0207 48.306 91.0207 51.135C91.0207 53.964 93.3167 56.26 96.1457 56.26ZM124.516 47.65C124.516 43.263 121.236 39.696 116.767 39.532V55.768C121.236 55.604 124.516 52.037 124.516 47.65ZM116.767 56.424V61.344C124.229 61.18 130.092 55.153 130.092 47.65C130.092 40.188 124.229 34.12 116.767 33.956V38.876C121.646 39.04 125.172 42.935 125.172 47.65C125.172 52.365 121.646 56.26 116.767 56.424ZM110.535 62V33.3H116.439C124.393 33.3 130.748 39.737 130.748 47.65C130.748 55.563 124.393 62 116.439 62H110.535ZM116.111 55.768V39.532H111.191V55.768H116.111ZM116.111 56.424H111.191V61.344H116.111V56.424ZM116.111 38.876V33.956H111.191V38.876H116.111ZM143.992 62.492C137.719 62.492 132.635 57.408 132.635 51.135C132.635 44.862 137.719 39.778 143.992 39.778C150.265 39.778 155.349 44.862 155.349 51.135C155.349 57.408 150.265 62.492 143.992 62.492ZM143.992 61.836C149.896 61.836 154.693 57.039 154.693 51.135C154.693 45.231 149.896 40.434 143.992 40.434C138.088 40.434 133.291 45.231 133.291 51.135C133.291 57.039 138.088 61.836 143.992 61.836ZM143.992 56.916C140.794 56.916 138.211 54.333 138.211 51.135C138.211 47.937 140.794 45.354 143.992 45.354C147.19 45.354 149.773 47.937 149.773 51.135C149.773 54.333 147.19 56.916 143.992 56.916ZM143.992 56.26C146.821 56.26 149.117 53.964 149.117 51.135C149.117 48.306 146.821 46.01 143.992 46.01C141.163 46.01 138.867 48.306 138.867 51.135C138.867 53.964 141.163 56.26 143.992 56.26ZM173.663 39.532V45.928H176.574C178.378 45.928 179.772 44.534 179.772 42.73C179.772 40.926 178.378 39.532 176.574 39.532H173.663ZM173.663 38.876H176.574C178.706 38.876 180.428 40.598 180.428 42.73C180.428 44.862 178.706 46.584 176.574 46.584H173.663V51.504H176.574C181.494 51.504 185.348 47.65 185.348 42.73C185.348 37.81 181.494 33.956 176.574 33.956H173.663V38.876ZM168.087 52.16V62H167.431V33.3H176.574C181.822 33.3 186.004 37.482 186.004 42.73C186.004 47.978 181.822 52.16 176.574 52.16H173.663V62H173.007V52.16H168.087ZM168.087 39.532V45.928H173.007V39.532H168.087ZM173.007 33.956H168.087V38.876H173.007V33.956ZM173.007 46.584H168.087V51.504H173.007V46.584ZM194.335 62V42.689C192.121 44.042 189.415 46.83 189.415 51.709V62H188.759V40.27H189.415V47.732C190.44 44.903 192.039 43.304 194.335 41.951V40.27H194.991V41.582C196.631 40.762 198.394 40.352 200.116 40.352V41.008C198.394 41.008 196.59 41.459 194.991 42.32V49.044C195.934 47.199 197.902 45.928 200.116 45.928V46.584C197.246 46.584 194.991 48.88 194.991 51.709V62H194.335ZM212.259 62.492C205.986 62.492 200.902 57.408 200.902 51.135C200.902 44.862 205.986 39.778 212.259 39.778C218.532 39.778 223.616 44.862 223.616 51.135C223.616 57.408 218.532 62.492 212.259 62.492ZM212.259 61.836C218.163 61.836 222.96 57.039 222.96 51.135C222.96 45.231 218.163 40.434 212.259 40.434C206.355 40.434 201.558 45.231 201.558 51.135C201.558 57.039 206.355 61.836 212.259 61.836ZM212.259 56.916C209.061 56.916 206.478 54.333 206.478 51.135C206.478 47.937 209.061 45.354 212.259 45.354C215.457 45.354 218.04 47.937 218.04 51.135C218.04 54.333 215.457 56.916 212.259 56.916ZM212.259 56.26C215.088 56.26 217.384 53.964 217.384 51.135C217.384 48.306 215.088 46.01 212.259 46.01C209.43 46.01 207.134 48.306 207.134 51.135C207.134 53.964 209.43 56.26 212.259 56.26ZM233.28 40.27V63.722C233.28 67.699 230 71.02 226.023 71.02H222.825V70.364H226.023C229.672 70.364 232.624 67.371 232.624 63.722V40.27H233.28ZM222.825 64.788H226.023C226.597 64.788 227.048 64.296 227.048 63.722V40.27H227.704V63.722C227.704 64.624 227.007 65.444 226.023 65.444H222.825V64.788ZM227.704 31.25V38.138H227.048V31.25H227.704ZM232.624 38.138V31.25H233.28V38.138H232.624ZM236.216 51.135C236.216 44.862 241.3 39.778 247.573 39.778C252.575 39.778 256.798 42.976 258.315 47.486L244.99 55.563C245.769 56.014 246.63 56.26 247.573 56.26C249.623 56.26 251.386 55.03 252.206 53.308L252.821 53.595C251.919 55.563 249.91 56.916 247.573 56.916C246.384 56.916 245.277 56.547 244.375 55.932L239.947 58.638C241.874 60.606 244.58 61.836 247.573 61.836C251.837 61.836 255.568 59.294 257.29 55.645L257.864 55.932C256.06 59.827 252.124 62.492 247.573 62.492C241.3 62.492 236.216 57.408 236.216 51.135ZM236.872 51.135C236.872 52.324 237.077 53.431 237.405 54.497L241.833 51.791C241.792 51.586 241.792 51.34 241.792 51.135C241.792 47.937 244.375 45.354 247.573 45.354C248.762 45.354 249.91 45.723 250.812 46.338L255.199 43.673C253.272 41.664 250.566 40.434 247.573 40.434C241.669 40.434 236.872 45.231 236.872 51.135ZM237.651 55.112C238.102 56.219 238.717 57.244 239.496 58.146L243.801 55.522C242.899 54.743 242.243 53.677 241.956 52.488L237.651 55.112ZM242.448 51.135V51.422L250.197 46.707C249.418 46.256 248.516 46.01 247.573 46.01C244.744 46.01 242.448 48.306 242.448 51.135ZM242.53 52.16C242.776 53.349 243.473 54.415 244.416 55.153L252.616 50.151C252.37 48.962 251.714 47.896 250.771 47.117L242.53 52.16ZM251.386 46.789C252.288 47.568 252.944 48.593 253.19 49.823L257.536 47.158C257.085 46.051 256.429 45.067 255.691 44.165L251.386 46.789ZM271.174 45.846V46.502H269.985C267.484 46.502 265.352 48.634 265.352 51.135C265.352 53.636 267.484 55.768 269.985 55.768H271.174V56.424H269.985C267.115 56.424 264.696 54.005 264.696 51.135C264.696 48.265 267.115 45.846 269.985 45.846H271.174ZM271.174 40.926H269.985C264.368 40.926 259.776 45.518 259.776 51.135C259.776 56.752 264.368 61.344 269.985 61.344H271.174V62H269.985C263.999 62 259.12 57.121 259.12 51.135C259.12 45.149 263.999 40.27 269.985 40.27H271.174V40.926ZM276.693 40.926H273.454V40.27H276.693V33.3H277.349V40.27H282.269V33.3H282.925V40.27H286.164V40.926H282.925V45.846H286.164V46.502H282.925V62H282.269V46.502H277.349V62H276.693V46.502H273.454V45.846H276.693V40.926ZM282.269 40.926H277.349V45.846H282.269V40.926ZM301.334 33.956H295.471V33.3H313.429V33.956H307.566V38.876H313.429V39.532H307.566V62H306.91V39.532H301.99V62H301.334V39.532H295.471V38.876H301.334V33.956ZM306.91 33.956H301.99V38.876H306.91V33.956ZM323.367 62.492C317.094 62.492 312.01 57.408 312.01 51.135C312.01 44.862 317.094 39.778 323.367 39.778C329.64 39.778 334.724 44.862 334.724 51.135C334.724 57.408 329.64 62.492 323.367 62.492ZM323.367 61.836C329.271 61.836 334.068 57.039 334.068 51.135C334.068 45.231 329.271 40.434 323.367 40.434C317.463 40.434 312.666 45.231 312.666 51.135C312.666 57.039 317.463 61.836 323.367 61.836ZM323.367 56.916C320.169 56.916 317.586 54.333 317.586 51.135C317.586 47.937 320.169 45.354 323.367 45.354C326.565 45.354 329.148 47.937 329.148 51.135C329.148 54.333 326.565 56.916 323.367 56.916ZM323.367 56.26C326.196 56.26 328.492 53.964 328.492 51.135C328.492 48.306 326.196 46.01 323.367 46.01C320.538 46.01 318.242 48.306 318.242 51.135C318.242 53.964 320.538 56.26 323.367 56.26ZM351.738 47.65C351.738 43.263 348.458 39.696 343.989 39.532V55.768C348.458 55.604 351.738 52.037 351.738 47.65ZM343.989 56.424V61.344C351.451 61.18 357.314 55.153 357.314 47.65C357.314 40.188 351.451 34.12 343.989 33.956V38.876C348.868 39.04 352.394 42.935 352.394 47.65C352.394 52.365 348.868 56.26 343.989 56.424ZM337.757 62V33.3H343.661C351.615 33.3 357.97 39.737 357.97 47.65C357.97 55.563 351.615 62 343.661 62H337.757ZM343.333 55.768V39.532H338.413V55.768H343.333ZM343.333 56.424H338.413V61.344H343.333V56.424ZM343.333 38.876V33.956H338.413V38.876H343.333ZM371.214 62.492C364.941 62.492 359.857 57.408 359.857 51.135C359.857 44.862 364.941 39.778 371.214 39.778C377.487 39.778 382.571 44.862 382.571 51.135C382.571 57.408 377.487 62.492 371.214 62.492ZM371.214 61.836C377.118 61.836 381.915 57.039 381.915 51.135C381.915 45.231 377.118 40.434 371.214 40.434C365.31 40.434 360.513 45.231 360.513 51.135C360.513 57.039 365.31 61.836 371.214 61.836ZM371.214 56.916C368.016 56.916 365.433 54.333 365.433 51.135C365.433 47.937 368.016 45.354 371.214 45.354C374.412 45.354 376.995 47.937 376.995 51.135C376.995 54.333 374.412 56.916 371.214 56.916ZM371.214 56.26C374.043 56.26 376.339 53.964 376.339 51.135C376.339 48.306 374.043 46.01 371.214 46.01C368.385 46.01 366.089 48.306 366.089 51.135C366.089 53.964 368.385 56.26 371.214 56.26ZM400.884 39.532V45.928H403.795C405.599 45.928 406.993 44.534 406.993 42.73C406.993 40.926 405.599 39.532 403.795 39.532H400.884ZM400.884 38.876H403.795C405.927 38.876 407.649 40.598 407.649 42.73C407.649 44.862 405.927 46.584 403.795 46.584H400.884V51.504H403.795C408.715 51.504 412.569 47.65 412.569 42.73C412.569 37.81 408.715 33.956 403.795 33.956H400.884V38.876ZM395.308 52.16V62H394.652V33.3H403.795C409.043 33.3 413.225 37.482 413.225 42.73C413.225 47.978 409.043 52.16 403.795 52.16H400.884V62H400.228V52.16H395.308ZM395.308 39.532V45.928H400.228V39.532H395.308ZM400.228 33.956H395.308V38.876H400.228V33.956ZM400.228 46.584H395.308V51.504H400.228V46.584ZM421.557 62V42.689C419.343 44.042 416.637 46.83 416.637 51.709V62H415.981V40.27H416.637V47.732C417.662 44.903 419.261 43.304 421.557 41.951V40.27H422.213V41.582C423.853 40.762 425.616 40.352 427.338 40.352V41.008C425.616 41.008 423.812 41.459 422.213 42.32V49.044C423.156 47.199 425.124 45.928 427.338 45.928V46.584C424.468 46.584 422.213 48.88 422.213 51.709V62H421.557ZM439.481 62.492C433.208 62.492 428.124 57.408 428.124 51.135C428.124 44.862 433.208 39.778 439.481 39.778C445.754 39.778 450.838 44.862 450.838 51.135C450.838 57.408 445.754 62.492 439.481 62.492ZM439.481 61.836C445.385 61.836 450.182 57.039 450.182 51.135C450.182 45.231 445.385 40.434 439.481 40.434C433.577 40.434 428.78 45.231 428.78 51.135C428.78 57.039 433.577 61.836 439.481 61.836ZM439.481 56.916C436.283 56.916 433.7 54.333 433.7 51.135C433.7 47.937 436.283 45.354 439.481 45.354C442.679 45.354 445.262 47.937 445.262 51.135C445.262 54.333 442.679 56.916 439.481 56.916ZM439.481 56.26C442.31 56.26 444.606 53.964 444.606 51.135C444.606 48.306 442.31 46.01 439.481 46.01C436.652 46.01 434.356 48.306 434.356 51.135C434.356 53.964 436.652 56.26 439.481 56.26ZM460.502 40.27V63.722C460.502 67.699 457.222 71.02 453.245 71.02H450.047V70.364H453.245C456.894 70.364 459.846 67.371 459.846 63.722V40.27H460.502ZM450.047 64.788H453.245C453.819 64.788 454.27 64.296 454.27 63.722V40.27H454.926V63.722C454.926 64.624 454.229 65.444 453.245 65.444H450.047V64.788ZM454.926 31.25V38.138H454.27V31.25H454.926ZM459.846 38.138V31.25H460.502V38.138H459.846ZM463.438 51.135C463.438 44.862 468.522 39.778 474.795 39.778C479.797 39.778 484.02 42.976 485.537 47.486L472.212 55.563C472.991 56.014 473.852 56.26 474.795 56.26C476.845 56.26 478.608 55.03 479.428 53.308L480.043 53.595C479.141 55.563 477.132 56.916 474.795 56.916C473.606 56.916 472.499 56.547 471.597 55.932L467.169 58.638C469.096 60.606 471.802 61.836 474.795 61.836C479.059 61.836 482.79 59.294 484.512 55.645L485.086 55.932C483.282 59.827 479.346 62.492 474.795 62.492C468.522 62.492 463.438 57.408 463.438 51.135ZM464.094 51.135C464.094 52.324 464.299 53.431 464.627 54.497L469.055 51.791C469.014 51.586 469.014 51.34 469.014 51.135C469.014 47.937 471.597 45.354 474.795 45.354C475.984 45.354 477.132 45.723 478.034 46.338L482.421 43.673C480.494 41.664 477.788 40.434 474.795 40.434C468.891 40.434 464.094 45.231 464.094 51.135ZM464.873 55.112C465.324 56.219 465.939 57.244 466.718 58.146L471.023 55.522C470.121 54.743 469.465 53.677 469.178 52.488L464.873 55.112ZM469.67 51.135V51.422L477.419 46.707C476.64 46.256 475.738 46.01 474.795 46.01C471.966 46.01 469.67 48.306 469.67 51.135ZM469.752 52.16C469.998 53.349 470.695 54.415 471.638 55.153L479.838 50.151C479.592 48.962 478.936 47.896 477.993 47.117L469.752 52.16ZM478.608 46.789C479.51 47.568 480.166 48.593 480.412 49.823L484.758 47.158C484.307 46.051 483.651 45.067 482.913 44.165L478.608 46.789ZM498.395 45.846V46.502H497.206C494.705 46.502 492.573 48.634 492.573 51.135C492.573 53.636 494.705 55.768 497.206 55.768H498.395V56.424H497.206C494.336 56.424 491.917 54.005 491.917 51.135C491.917 48.265 494.336 45.846 497.206 45.846H498.395ZM498.395 40.926H497.206C491.589 40.926 486.997 45.518 486.997 51.135C486.997 56.752 491.589 61.344 497.206 61.344H498.395V62H497.206C491.22 62 486.341 57.121 486.341 51.135C486.341 45.149 491.22 40.27 497.206 40.27H498.395V40.926ZM503.914 40.926H500.675V40.27H503.914V33.3H504.57V40.27H509.49V33.3H510.146V40.27H513.385V40.926H510.146V45.846H513.385V46.502H510.146V62H509.49V46.502H504.57V62H503.914V46.502H500.675V45.846H503.914V40.926ZM509.49 40.926H504.57V45.846H509.49V40.926ZM528.556 33.956H522.693V33.3H540.651V33.956H534.788V38.876H540.651V39.532H534.788V62H534.132V39.532H529.212V62H528.556V39.532H522.693V38.876H528.556V33.956ZM534.132 33.956H529.212V38.876H534.132V33.956ZM550.589 62.492C544.316 62.492 539.232 57.408 539.232 51.135C539.232 44.862 544.316 39.778 550.589 39.778C556.862 39.778 561.946 44.862 561.946 51.135C561.946 57.408 556.862 62.492 550.589 62.492ZM550.589 61.836C556.493 61.836 561.29 57.039 561.29 51.135C561.29 45.231 556.493 40.434 550.589 40.434C544.685 40.434 539.888 45.231 539.888 51.135C539.888 57.039 544.685 61.836 550.589 61.836ZM550.589 56.916C547.391 56.916 544.808 54.333 544.808 51.135C544.808 47.937 547.391 45.354 550.589 45.354C553.787 45.354 556.37 47.937 556.37 51.135C556.37 54.333 553.787 56.916 550.589 56.916ZM550.589 56.26C553.418 56.26 555.714 53.964 555.714 51.135C555.714 48.306 553.418 46.01 550.589 46.01C547.76 46.01 545.464 48.306 545.464 51.135C545.464 53.964 547.76 56.26 550.589 56.26ZM578.959 47.65C578.959 43.263 575.679 39.696 571.21 39.532V55.768C575.679 55.604 578.959 52.037 578.959 47.65ZM571.21 56.424V61.344C578.672 61.18 584.535 55.153 584.535 47.65C584.535 40.188 578.672 34.12 571.21 33.956V38.876C576.089 39.04 579.615 42.935 579.615 47.65C579.615 52.365 576.089 56.26 571.21 56.424ZM564.978 62V33.3H570.882C578.836 33.3 585.191 39.737 585.191 47.65C585.191 55.563 578.836 62 570.882 62H564.978ZM570.554 55.768V39.532H565.634V55.768H570.554ZM570.554 56.424H565.634V61.344H570.554V56.424ZM570.554 38.876V33.956H565.634V38.876H570.554ZM598.436 62.492C592.163 62.492 587.079 57.408 587.079 51.135C587.079 44.862 592.163 39.778 598.436 39.778C604.709 39.778 609.793 44.862 609.793 51.135C609.793 57.408 604.709 62.492 598.436 62.492ZM598.436 61.836C604.34 61.836 609.137 57.039 609.137 51.135C609.137 45.231 604.34 40.434 598.436 40.434C592.532 40.434 587.735 45.231 587.735 51.135C587.735 57.039 592.532 61.836 598.436 61.836ZM598.436 56.916C595.238 56.916 592.655 54.333 592.655 51.135C592.655 47.937 595.238 45.354 598.436 45.354C601.634 45.354 604.217 47.937 604.217 51.135C604.217 54.333 601.634 56.916 598.436 56.916ZM598.436 56.26C601.265 56.26 603.561 53.964 603.561 51.135C603.561 48.306 601.265 46.01 598.436 46.01C595.607 46.01 593.311 48.306 593.311 51.135C593.311 53.964 595.607 56.26 598.436 56.26ZM628.106 39.532V45.928H631.017C632.821 45.928 634.215 44.534 634.215 42.73C634.215 40.926 632.821 39.532 631.017 39.532H628.106ZM628.106 38.876H631.017C633.149 38.876 634.871 40.598 634.871 42.73C634.871 44.862 633.149 46.584 631.017 46.584H628.106V51.504H631.017C635.937 51.504 639.791 47.65 639.791 42.73C639.791 37.81 635.937 33.956 631.017 33.956H628.106V38.876ZM622.53 52.16V62H621.874V33.3H631.017C636.265 33.3 640.447 37.482 640.447 42.73C640.447 47.978 636.265 52.16 631.017 52.16H628.106V62H627.45V52.16H622.53ZM622.53 39.532V45.928H627.45V39.532H622.53ZM627.45 33.956H622.53V38.876H627.45V33.956ZM627.45 46.584H622.53V51.504H627.45V46.584ZM648.778 62V42.689C646.564 44.042 643.858 46.83 643.858 51.709V62H643.202V40.27H643.858V47.732C644.883 44.903 646.482 43.304 648.778 41.951V40.27H649.434V41.582C651.074 40.762 652.837 40.352 654.559 40.352V41.008C652.837 41.008 651.033 41.459 649.434 42.32V49.044C650.377 47.199 652.345 45.928 654.559 45.928V46.584C651.689 46.584 649.434 48.88 649.434 51.709V62H648.778ZM666.702 62.492C660.429 62.492 655.345 57.408 655.345 51.135C655.345 44.862 660.429 39.778 666.702 39.778C672.975 39.778 678.059 44.862 678.059 51.135C678.059 57.408 672.975 62.492 666.702 62.492ZM666.702 61.836C672.606 61.836 677.403 57.039 677.403 51.135C677.403 45.231 672.606 40.434 666.702 40.434C660.798 40.434 656.001 45.231 656.001 51.135C656.001 57.039 660.798 61.836 666.702 61.836ZM666.702 56.916C663.504 56.916 660.921 54.333 660.921 51.135C660.921 47.937 663.504 45.354 666.702 45.354C669.9 45.354 672.483 47.937 672.483 51.135C672.483 54.333 669.9 56.916 666.702 56.916ZM666.702 56.26C669.531 56.26 671.827 53.964 671.827 51.135C671.827 48.306 669.531 46.01 666.702 46.01C663.873 46.01 661.577 48.306 661.577 51.135C661.577 53.964 663.873 56.26 666.702 56.26ZM687.723 40.27V63.722C687.723 67.699 684.443 71.02 680.466 71.02H677.268V70.364H680.466C684.115 70.364 687.067 67.371 687.067 63.722V40.27H687.723ZM677.268 64.788H680.466C681.04 64.788 681.491 64.296 681.491 63.722V40.27H682.147V63.722C682.147 64.624 681.45 65.444 680.466 65.444H677.268V64.788ZM682.147 31.25V38.138H681.491V31.25H682.147ZM687.067 38.138V31.25H687.723V38.138H687.067ZM690.66 51.135C690.66 44.862 695.744 39.778 702.017 39.778C707.019 39.778 711.242 42.976 712.759 47.486L699.434 55.563C700.213 56.014 701.074 56.26 702.017 56.26C704.067 56.26 705.83 55.03 706.65 53.308L707.265 53.595C706.363 55.563 704.354 56.916 702.017 56.916C700.828 56.916 699.721 56.547 698.819 55.932L694.391 58.638C696.318 60.606 699.024 61.836 702.017 61.836C706.281 61.836 710.012 59.294 711.734 55.645L712.308 55.932C710.504 59.827 706.568 62.492 702.017 62.492C695.744 62.492 690.66 57.408 690.66 51.135ZM691.316 51.135C691.316 52.324 691.521 53.431 691.849 54.497L696.277 51.791C696.236 51.586 696.236 51.34 696.236 51.135C696.236 47.937 698.819 45.354 702.017 45.354C703.206 45.354 704.354 45.723 705.256 46.338L709.643 43.673C707.716 41.664 705.01 40.434 702.017 40.434C696.113 40.434 691.316 45.231 691.316 51.135ZM692.095 55.112C692.546 56.219 693.161 57.244 693.94 58.146L698.245 55.522C697.343 54.743 696.687 53.677 696.4 52.488L692.095 55.112ZM696.892 51.135V51.422L704.641 46.707C703.862 46.256 702.96 46.01 702.017 46.01C699.188 46.01 696.892 48.306 696.892 51.135ZM696.974 52.16C697.22 53.349 697.917 54.415 698.86 55.153L707.06 50.151C706.814 48.962 706.158 47.896 705.215 47.117L696.974 52.16ZM705.83 46.789C706.732 47.568 707.388 48.593 707.634 49.823L711.98 47.158C711.529 46.051 710.873 45.067 710.135 44.165L705.83 46.789ZM725.617 45.846V46.502H724.428C721.927 46.502 719.795 48.634 719.795 51.135C719.795 53.636 721.927 55.768 724.428 55.768H725.617V56.424H724.428C721.558 56.424 719.139 54.005 719.139 51.135C719.139 48.265 721.558 45.846 724.428 45.846H725.617ZM725.617 40.926H724.428C718.811 40.926 714.219 45.518 714.219 51.135C714.219 56.752 718.811 61.344 724.428 61.344H725.617V62H724.428C718.442 62 713.563 57.121 713.563 51.135C713.563 45.149 718.442 40.27 724.428 40.27H725.617V40.926ZM731.136 40.926H727.897V40.27H731.136V33.3H731.792V40.27H736.712V33.3H737.368V40.27H740.607V40.926H737.368V45.846H740.607V46.502H737.368V62H736.712V46.502H731.792V62H731.136V46.502H727.897V45.846H731.136V40.926ZM736.712 40.926H731.792V45.846H736.712V40.926ZM755.778 33.956H749.915V33.3H767.873V33.956H762.01V38.876H767.873V39.532H762.01V62H761.354V39.532H756.434V62H755.778V39.532H749.915V38.876H755.778V33.956ZM761.354 33.956H756.434V38.876H761.354V33.956ZM777.811 62.492C771.538 62.492 766.454 57.408 766.454 51.135C766.454 44.862 771.538 39.778 777.811 39.778C784.084 39.778 789.168 44.862 789.168 51.135C789.168 57.408 784.084 62.492 777.811 62.492ZM777.811 61.836C783.715 61.836 788.512 57.039 788.512 51.135C788.512 45.231 783.715 40.434 777.811 40.434C771.907 40.434 767.11 45.231 767.11 51.135C767.11 57.039 771.907 61.836 777.811 61.836ZM777.811 56.916C774.613 56.916 772.03 54.333 772.03 51.135C772.03 47.937 774.613 45.354 777.811 45.354C781.009 45.354 783.592 47.937 783.592 51.135C783.592 54.333 781.009 56.916 777.811 56.916ZM777.811 56.26C780.64 56.26 782.936 53.964 782.936 51.135C782.936 48.306 780.64 46.01 777.811 46.01C774.982 46.01 772.686 48.306 772.686 51.135C772.686 53.964 774.982 56.26 777.811 56.26ZM806.181 47.65C806.181 43.263 802.901 39.696 798.432 39.532V55.768C802.901 55.604 806.181 52.037 806.181 47.65ZM798.432 56.424V61.344C805.894 61.18 811.757 55.153 811.757 47.65C811.757 40.188 805.894 34.12 798.432 33.956V38.876C803.311 39.04 806.837 42.935 806.837 47.65C806.837 52.365 803.311 56.26 798.432 56.424ZM792.2 62V33.3H798.104C806.058 33.3 812.413 39.737 812.413 47.65C812.413 55.563 806.058 62 798.104 62H792.2ZM797.776 55.768V39.532H792.856V55.768H797.776ZM797.776 56.424H792.856V61.344H797.776V56.424ZM797.776 38.876V33.956H792.856V38.876H797.776ZM825.657 62.492C819.384 62.492 814.3 57.408 814.3 51.135C814.3 44.862 819.384 39.778 825.657 39.778C831.93 39.778 837.014 44.862 837.014 51.135C837.014 57.408 831.93 62.492 825.657 62.492ZM825.657 61.836C831.561 61.836 836.358 57.039 836.358 51.135C836.358 45.231 831.561 40.434 825.657 40.434C819.753 40.434 814.956 45.231 814.956 51.135C814.956 57.039 819.753 61.836 825.657 61.836ZM825.657 56.916C822.459 56.916 819.876 54.333 819.876 51.135C819.876 47.937 822.459 45.354 825.657 45.354C828.855 45.354 831.438 47.937 831.438 51.135C831.438 54.333 828.855 56.916 825.657 56.916ZM825.657 56.26C828.486 56.26 830.782 53.964 830.782 51.135C830.782 48.306 828.486 46.01 825.657 46.01C822.828 46.01 820.532 48.306 820.532 51.135C820.532 53.964 822.828 56.26 825.657 56.26ZM855.328 39.532V45.928H858.239C860.043 45.928 861.437 44.534 861.437 42.73C861.437 40.926 860.043 39.532 858.239 39.532H855.328ZM855.328 38.876H858.239C860.371 38.876 862.093 40.598 862.093 42.73C862.093 44.862 860.371 46.584 858.239 46.584H855.328V51.504H858.239C863.159 51.504 867.013 47.65 867.013 42.73C867.013 37.81 863.159 33.956 858.239 33.956H855.328V38.876ZM849.752 52.16V62H849.096V33.3H858.239C863.487 33.3 867.669 37.482 867.669 42.73C867.669 47.978 863.487 52.16 858.239 52.16H855.328V62H854.672V52.16H849.752ZM849.752 39.532V45.928H854.672V39.532H849.752ZM854.672 33.956H849.752V38.876H854.672V33.956ZM854.672 46.584H849.752V51.504H854.672V46.584ZM876 62V42.689C873.786 44.042 871.08 46.83 871.08 51.709V62H870.424V40.27H871.08V47.732C872.105 44.903 873.704 43.304 876 41.951V40.27H876.656V41.582C878.296 40.762 880.059 40.352 881.781 40.352V41.008C880.059 41.008 878.255 41.459 876.656 42.32V49.044C877.599 47.199 879.567 45.928 881.781 45.928V46.584C878.911 46.584 876.656 48.88 876.656 51.709V62H876ZM893.924 62.492C887.651 62.492 882.567 57.408 882.567 51.135C882.567 44.862 887.651 39.778 893.924 39.778C900.197 39.778 905.281 44.862 905.281 51.135C905.281 57.408 900.197 62.492 893.924 62.492ZM893.924 61.836C899.828 61.836 904.625 57.039 904.625 51.135C904.625 45.231 899.828 40.434 893.924 40.434C888.02 40.434 883.223 45.231 883.223 51.135C883.223 57.039 888.02 61.836 893.924 61.836ZM893.924 56.916C890.726 56.916 888.143 54.333 888.143 51.135C888.143 47.937 890.726 45.354 893.924 45.354C897.122 45.354 899.705 47.937 899.705 51.135C899.705 54.333 897.122 56.916 893.924 56.916ZM893.924 56.26C896.753 56.26 899.049 53.964 899.049 51.135C899.049 48.306 896.753 46.01 893.924 46.01C891.095 46.01 888.799 48.306 888.799 51.135C888.799 53.964 891.095 56.26 893.924 56.26ZM914.945 40.27V63.722C914.945 67.699 911.665 71.02 907.688 71.02H904.49V70.364H907.688C911.337 70.364 914.289 67.371 914.289 63.722V40.27H914.945ZM904.49 64.788H907.688C908.262 64.788 908.713 64.296 908.713 63.722V40.27H909.369V63.722C909.369 64.624 908.672 65.444 907.688 65.444H904.49V64.788ZM909.369 31.25V38.138H908.713V31.25H909.369ZM914.289 38.138V31.25H914.945V38.138H914.289ZM917.882 51.135C917.882 44.862 922.966 39.778 929.239 39.778C934.241 39.778 938.464 42.976 939.981 47.486L926.656 55.563C927.435 56.014 928.296 56.26 929.239 56.26C931.289 56.26 933.052 55.03 933.872 53.308L934.487 53.595C933.585 55.563 931.576 56.916 929.239 56.916C928.05 56.916 926.943 56.547 926.041 55.932L921.613 58.638C923.54 60.606 926.246 61.836 929.239 61.836C933.503 61.836 937.234 59.294 938.956 55.645L939.53 55.932C937.726 59.827 933.79 62.492 929.239 62.492C922.966 62.492 917.882 57.408 917.882 51.135ZM918.538 51.135C918.538 52.324 918.743 53.431 919.071 54.497L923.499 51.791C923.458 51.586 923.458 51.34 923.458 51.135C923.458 47.937 926.041 45.354 929.239 45.354C930.428 45.354 931.576 45.723 932.478 46.338L936.865 43.673C934.938 41.664 932.232 40.434 929.239 40.434C923.335 40.434 918.538 45.231 918.538 51.135ZM919.317 55.112C919.768 56.219 920.383 57.244 921.162 58.146L925.467 55.522C924.565 54.743 923.909 53.677 923.622 52.488L919.317 55.112ZM924.114 51.135V51.422L931.863 46.707C931.084 46.256 930.182 46.01 929.239 46.01C926.41 46.01 924.114 48.306 924.114 51.135ZM924.196 52.16C924.442 53.349 925.139 54.415 926.082 55.153L934.282 50.151C934.036 48.962 933.38 47.896 932.437 47.117L924.196 52.16ZM933.052 46.789C933.954 47.568 934.61 48.593 934.856 49.823L939.202 47.158C938.751 46.051 938.095 45.067 937.357 44.165L933.052 46.789ZM952.839 45.846V46.502H951.65C949.149 46.502 947.017 48.634 947.017 51.135C947.017 53.636 949.149 55.768 951.65 55.768H952.839V56.424H951.65C948.78 56.424 946.361 54.005 946.361 51.135C946.361 48.265 948.78 45.846 951.65 45.846H952.839ZM952.839 40.926H951.65C946.033 40.926 941.441 45.518 941.441 51.135C941.441 56.752 946.033 61.344 951.65 61.344H952.839V62H951.65C945.664 62 940.785 57.121 940.785 51.135C940.785 45.149 945.664 40.27 951.65 40.27H952.839V40.926ZM958.358 40.926H955.119V40.27H958.358V33.3H959.014V40.27H963.934V33.3H964.59V40.27H967.829V40.926H964.59V45.846H967.829V46.502H964.59V62H963.934V46.502H959.014V62H958.358V46.502H955.119V45.846H958.358V40.926ZM963.934 40.926H959.014V45.846H963.934V40.926ZM982.999 33.956H977.136V33.3H995.094V33.956H989.231V38.876H995.094V39.532H989.231V62H988.575V39.532H983.655V62H982.999V39.532H977.136V38.876H982.999V33.956ZM988.575 33.956H983.655V38.876H988.575V33.956ZM1005.03 62.492C998.759 62.492 993.675 57.408 993.675 51.135C993.675 44.862 998.759 39.778 1005.03 39.778C1011.31 39.778 1016.39 44.862 1016.39 51.135C1016.39 57.408 1011.31 62.492 1005.03 62.492ZM1005.03 61.836C1010.94 61.836 1015.73 57.039 1015.73 51.135C1015.73 45.231 1010.94 40.434 1005.03 40.434C999.128 40.434 994.331 45.231 994.331 51.135C994.331 57.039 999.128 61.836 1005.03 61.836ZM1005.03 56.916C1001.83 56.916 999.251 54.333 999.251 51.135C999.251 47.937 1001.83 45.354 1005.03 45.354C1008.23 45.354 1010.81 47.937 1010.81 51.135C1010.81 54.333 1008.23 56.916 1005.03 56.916ZM1005.03 56.26C1007.86 56.26 1010.16 53.964 1010.16 51.135C1010.16 48.306 1007.86 46.01 1005.03 46.01C1002.2 46.01 999.907 48.306 999.907 51.135C999.907 53.964 1002.2 56.26 1005.03 56.26ZM1033.4 47.65C1033.4 43.263 1030.12 39.696 1025.65 39.532V55.768C1030.12 55.604 1033.4 52.037 1033.4 47.65ZM1025.65 56.424V61.344C1033.12 61.18 1038.98 55.153 1038.98 47.65C1038.98 40.188 1033.12 34.12 1025.65 33.956V38.876C1030.53 39.04 1034.06 42.935 1034.06 47.65C1034.06 52.365 1030.53 56.26 1025.65 56.424ZM1019.42 62V33.3H1025.33C1033.28 33.3 1039.63 39.737 1039.63 47.65C1039.63 55.563 1033.28 62 1025.33 62H1019.42ZM1025 55.768V39.532H1020.08V55.768H1025ZM1025 56.424H1020.08V61.344H1025V56.424ZM1025 38.876V33.956H1020.08V38.876H1025ZM1052.88 62.492C1046.61 62.492 1041.52 57.408 1041.52 51.135C1041.52 44.862 1046.61 39.778 1052.88 39.778C1059.15 39.778 1064.24 44.862 1064.24 51.135C1064.24 57.408 1059.15 62.492 1052.88 62.492ZM1052.88 61.836C1058.78 61.836 1063.58 57.039 1063.58 51.135C1063.58 45.231 1058.78 40.434 1052.88 40.434C1046.98 40.434 1042.18 45.231 1042.18 51.135C1042.18 57.039 1046.98 61.836 1052.88 61.836ZM1052.88 56.916C1049.68 56.916 1047.1 54.333 1047.1 51.135C1047.1 47.937 1049.68 45.354 1052.88 45.354C1056.08 45.354 1058.66 47.937 1058.66 51.135C1058.66 54.333 1056.08 56.916 1052.88 56.916ZM1052.88 56.26C1055.71 56.26 1058 53.964 1058 51.135C1058 48.306 1055.71 46.01 1052.88 46.01C1050.05 46.01 1047.75 48.306 1047.75 51.135C1047.75 53.964 1050.05 56.26 1052.88 56.26ZM1082.55 39.532V45.928H1085.46C1087.26 45.928 1088.66 44.534 1088.66 42.73C1088.66 40.926 1087.26 39.532 1085.46 39.532H1082.55ZM1082.55 38.876H1085.46C1087.59 38.876 1089.31 40.598 1089.31 42.73C1089.31 44.862 1087.59 46.584 1085.46 46.584H1082.55V51.504H1085.46C1090.38 51.504 1094.23 47.65 1094.23 42.73C1094.23 37.81 1090.38 33.956 1085.46 33.956H1082.55V38.876ZM1076.97 52.16V62H1076.32V33.3H1085.46C1090.71 33.3 1094.89 37.482 1094.89 42.73C1094.89 47.978 1090.71 52.16 1085.46 52.16H1082.55V62H1081.89V52.16H1076.97ZM1076.97 39.532V45.928H1081.89V39.532H1076.97ZM1081.89 33.956H1076.97V38.876H1081.89V33.956ZM1081.89 46.584H1076.97V51.504H1081.89V46.584ZM1103.22 62V42.689C1101.01 44.042 1098.3 46.83 1098.3 51.709V62H1097.65V40.27H1098.3V47.732C1099.33 44.903 1100.93 43.304 1103.22 41.951V40.27H1103.88V41.582C1105.52 40.762 1107.28 40.352 1109 40.352V41.008C1107.28 41.008 1105.48 41.459 1103.88 42.32V49.044C1104.82 47.199 1106.79 45.928 1109 45.928V46.584C1106.13 46.584 1103.88 48.88 1103.88 51.709V62H1103.22ZM1121.15 62.492C1114.87 62.492 1109.79 57.408 1109.79 51.135C1109.79 44.862 1114.87 39.778 1121.15 39.778C1127.42 39.778 1132.5 44.862 1132.5 51.135C1132.5 57.408 1127.42 62.492 1121.15 62.492ZM1121.15 61.836C1127.05 61.836 1131.85 57.039 1131.85 51.135C1131.85 45.231 1127.05 40.434 1121.15 40.434C1115.24 40.434 1110.44 45.231 1110.44 51.135C1110.44 57.039 1115.24 61.836 1121.15 61.836ZM1121.15 56.916C1117.95 56.916 1115.36 54.333 1115.36 51.135C1115.36 47.937 1117.95 45.354 1121.15 45.354C1124.34 45.354 1126.93 47.937 1126.93 51.135C1126.93 54.333 1124.34 56.916 1121.15 56.916ZM1121.15 56.26C1123.97 56.26 1126.27 53.964 1126.27 51.135C1126.27 48.306 1123.97 46.01 1121.15 46.01C1118.32 46.01 1116.02 48.306 1116.02 51.135C1116.02 53.964 1118.32 56.26 1121.15 56.26ZM1142.17 40.27V63.722C1142.17 67.699 1138.89 71.02 1134.91 71.02H1131.71V70.364H1134.91C1138.56 70.364 1141.51 67.371 1141.51 63.722V40.27H1142.17ZM1131.71 64.788H1134.91C1135.48 64.788 1135.93 64.296 1135.93 63.722V40.27H1136.59V63.722C1136.59 64.624 1135.89 65.444 1134.91 65.444H1131.71V64.788ZM1136.59 31.25V38.138H1135.93V31.25H1136.59ZM1141.51 38.138V31.25H1142.17V38.138H1141.51ZM1145.1 51.135C1145.1 44.862 1150.19 39.778 1156.46 39.778C1161.46 39.778 1165.69 42.976 1167.2 47.486L1153.88 55.563C1154.66 56.014 1155.52 56.26 1156.46 56.26C1158.51 56.26 1160.27 55.03 1161.09 53.308L1161.71 53.595C1160.81 55.563 1158.8 56.916 1156.46 56.916C1155.27 56.916 1154.16 56.547 1153.26 55.932L1148.83 58.638C1150.76 60.606 1153.47 61.836 1156.46 61.836C1160.72 61.836 1164.46 59.294 1166.18 55.645L1166.75 55.932C1164.95 59.827 1161.01 62.492 1156.46 62.492C1150.19 62.492 1145.1 57.408 1145.1 51.135ZM1145.76 51.135C1145.76 52.324 1145.96 53.431 1146.29 54.497L1150.72 51.791C1150.68 51.586 1150.68 51.34 1150.68 51.135C1150.68 47.937 1153.26 45.354 1156.46 45.354C1157.65 45.354 1158.8 45.723 1159.7 46.338L1164.09 43.673C1162.16 41.664 1159.45 40.434 1156.46 40.434C1150.56 40.434 1145.76 45.231 1145.76 51.135ZM1146.54 55.112C1146.99 56.219 1147.6 57.244 1148.38 58.146L1152.69 55.522C1151.79 54.743 1151.13 53.677 1150.84 52.488L1146.54 55.112ZM1151.34 51.135V51.422L1159.08 46.707C1158.31 46.256 1157.4 46.01 1156.46 46.01C1153.63 46.01 1151.34 48.306 1151.34 51.135ZM1151.42 52.16C1151.66 53.349 1152.36 54.415 1153.3 55.153L1161.5 50.151C1161.26 48.962 1160.6 47.896 1159.66 47.117L1151.42 52.16ZM1160.27 46.789C1161.18 47.568 1161.83 48.593 1162.08 49.823L1166.42 47.158C1165.97 46.051 1165.32 45.067 1164.58 44.165L1160.27 46.789ZM1180.06 45.846V46.502H1178.87C1176.37 46.502 1174.24 48.634 1174.24 51.135C1174.24 53.636 1176.37 55.768 1178.87 55.768H1180.06V56.424H1178.87C1176 56.424 1173.58 54.005 1173.58 51.135C1173.58 48.265 1176 45.846 1178.87 45.846H1180.06ZM1180.06 40.926H1178.87C1173.25 40.926 1168.66 45.518 1168.66 51.135C1168.66 56.752 1173.25 61.344 1178.87 61.344H1180.06V62H1178.87C1172.89 62 1168.01 57.121 1168.01 51.135C1168.01 45.149 1172.89 40.27 1178.87 40.27H1180.06V40.926ZM1185.58 40.926H1182.34V40.27H1185.58V33.3H1186.24V40.27H1191.16V33.3H1191.81V40.27H1195.05V40.926H1191.81V45.846H1195.05V46.502H1191.81V62H1191.16V46.502H1186.24V62H1185.58V46.502H1182.34V45.846H1185.58V40.926ZM1191.16 40.926H1186.24V45.846H1191.16V40.926ZM1210.22 33.956H1204.36V33.3H1222.32V33.956H1216.45V38.876H1222.32V39.532H1216.45V62H1215.8V39.532H1210.88V62H1210.22V39.532H1204.36V38.876H1210.22V33.956ZM1215.8 33.956H1210.88V38.876H1215.8V33.956ZM1232.25 62.492C1225.98 62.492 1220.9 57.408 1220.9 51.135C1220.9 44.862 1225.98 39.778 1232.25 39.778C1238.53 39.778 1243.61 44.862 1243.61 51.135C1243.61 57.408 1238.53 62.492 1232.25 62.492ZM1232.25 61.836C1238.16 61.836 1242.96 57.039 1242.96 51.135C1242.96 45.231 1238.16 40.434 1232.25 40.434C1226.35 40.434 1221.55 45.231 1221.55 51.135C1221.55 57.039 1226.35 61.836 1232.25 61.836ZM1232.25 56.916C1229.06 56.916 1226.47 54.333 1226.47 51.135C1226.47 47.937 1229.06 45.354 1232.25 45.354C1235.45 45.354 1238.04 47.937 1238.04 51.135C1238.04 54.333 1235.45 56.916 1232.25 56.916ZM1232.25 56.26C1235.08 56.26 1237.38 53.964 1237.38 51.135C1237.38 48.306 1235.08 46.01 1232.25 46.01C1229.43 46.01 1227.13 48.306 1227.13 51.135C1227.13 53.964 1229.43 56.26 1232.25 56.26ZM1260.62 47.65C1260.62 43.263 1257.34 39.696 1252.88 39.532V55.768C1257.34 55.604 1260.62 52.037 1260.62 47.65ZM1252.88 56.424V61.344C1260.34 61.18 1266.2 55.153 1266.2 47.65C1266.2 40.188 1260.34 34.12 1252.88 33.956V38.876C1257.75 39.04 1261.28 42.935 1261.28 47.65C1261.28 52.365 1257.75 56.26 1252.88 56.424ZM1246.64 62V33.3H1252.55C1260.5 33.3 1266.86 39.737 1266.86 47.65C1266.86 55.563 1260.5 62 1252.55 62H1246.64ZM1252.22 55.768V39.532H1247.3V55.768H1252.22ZM1252.22 56.424H1247.3V61.344H1252.22V56.424ZM1252.22 38.876V33.956H1247.3V38.876H1252.22ZM1280.1 62.492C1273.83 62.492 1268.74 57.408 1268.74 51.135C1268.74 44.862 1273.83 39.778 1280.1 39.778C1286.37 39.778 1291.46 44.862 1291.46 51.135C1291.46 57.408 1286.37 62.492 1280.1 62.492ZM1280.1 61.836C1286 61.836 1290.8 57.039 1290.8 51.135C1290.8 45.231 1286 40.434 1280.1 40.434C1274.2 40.434 1269.4 45.231 1269.4 51.135C1269.4 57.039 1274.2 61.836 1280.1 61.836ZM1280.1 56.916C1276.9 56.916 1274.32 54.333 1274.32 51.135C1274.32 47.937 1276.9 45.354 1280.1 45.354C1283.3 45.354 1285.88 47.937 1285.88 51.135C1285.88 54.333 1283.3 56.916 1280.1 56.916ZM1280.1 56.26C1282.93 56.26 1285.23 53.964 1285.23 51.135C1285.23 48.306 1282.93 46.01 1280.1 46.01C1277.27 46.01 1274.98 48.306 1274.98 51.135C1274.98 53.964 1277.27 56.26 1280.1 56.26ZM1309.77 39.532V45.928H1312.68C1314.49 45.928 1315.88 44.534 1315.88 42.73C1315.88 40.926 1314.49 39.532 1312.68 39.532H1309.77ZM1309.77 38.876H1312.68C1314.81 38.876 1316.54 40.598 1316.54 42.73C1316.54 44.862 1314.81 46.584 1312.68 46.584H1309.77V51.504H1312.68C1317.6 51.504 1321.46 47.65 1321.46 42.73C1321.46 37.81 1317.6 33.956 1312.68 33.956H1309.77V38.876ZM1304.2 52.16V62H1303.54V33.3H1312.68C1317.93 33.3 1322.11 37.482 1322.11 42.73C1322.11 47.978 1317.93 52.16 1312.68 52.16H1309.77V62H1309.12V52.16H1304.2ZM1304.2 39.532V45.928H1309.12V39.532H1304.2ZM1309.12 33.956H1304.2V38.876H1309.12V33.956ZM1309.12 46.584H1304.2V51.504H1309.12V46.584ZM1330.44 62V42.689C1328.23 44.042 1325.52 46.83 1325.52 51.709V62H1324.87V40.27H1325.52V47.732C1326.55 44.903 1328.15 43.304 1330.44 41.951V40.27H1331.1V41.582C1332.74 40.762 1334.5 40.352 1336.22 40.352V41.008C1334.5 41.008 1332.7 41.459 1331.1 42.32V49.044C1332.04 47.199 1334.01 45.928 1336.22 45.928V46.584C1333.35 46.584 1331.1 48.88 1331.1 51.709V62H1330.44ZM1348.37 62.492C1342.09 62.492 1337.01 57.408 1337.01 51.135C1337.01 44.862 1342.09 39.778 1348.37 39.778C1354.64 39.778 1359.72 44.862 1359.72 51.135C1359.72 57.408 1354.64 62.492 1348.37 62.492ZM1348.37 61.836C1354.27 61.836 1359.07 57.039 1359.07 51.135C1359.07 45.231 1354.27 40.434 1348.37 40.434C1342.46 40.434 1337.67 45.231 1337.67 51.135C1337.67 57.039 1342.46 61.836 1348.37 61.836ZM1348.37 56.916C1345.17 56.916 1342.59 54.333 1342.59 51.135C1342.59 47.937 1345.17 45.354 1348.37 45.354C1351.57 45.354 1354.15 47.937 1354.15 51.135C1354.15 54.333 1351.57 56.916 1348.37 56.916ZM1348.37 56.26C1351.2 56.26 1353.49 53.964 1353.49 51.135C1353.49 48.306 1351.2 46.01 1348.37 46.01C1345.54 46.01 1343.24 48.306 1343.24 51.135C1343.24 53.964 1345.54 56.26 1348.37 56.26ZM1369.39 40.27V63.722C1369.39 67.699 1366.11 71.02 1362.13 71.02H1358.93V70.364H1362.13C1365.78 70.364 1368.73 67.371 1368.73 63.722V40.27H1369.39ZM1358.93 64.788H1362.13C1362.71 64.788 1363.16 64.296 1363.16 63.722V40.27H1363.81V63.722C1363.81 64.624 1363.12 65.444 1362.13 65.444H1358.93V64.788ZM1363.81 31.25V38.138H1363.16V31.25H1363.81ZM1368.73 38.138V31.25H1369.39V38.138H1368.73ZM1372.32 51.135C1372.32 44.862 1377.41 39.778 1383.68 39.778C1388.68 39.778 1392.91 42.976 1394.42 47.486L1381.1 55.563C1381.88 56.014 1382.74 56.26 1383.68 56.26C1385.73 56.26 1387.49 55.03 1388.31 53.308L1388.93 53.595C1388.03 55.563 1386.02 56.916 1383.68 56.916C1382.49 56.916 1381.39 56.547 1380.48 55.932L1376.06 58.638C1377.98 60.606 1380.69 61.836 1383.68 61.836C1387.95 61.836 1391.68 59.294 1393.4 55.645L1393.97 55.932C1392.17 59.827 1388.23 62.492 1383.68 62.492C1377.41 62.492 1372.32 57.408 1372.32 51.135ZM1372.98 51.135C1372.98 52.324 1373.19 53.431 1373.51 54.497L1377.94 51.791C1377.9 51.586 1377.9 51.34 1377.9 51.135C1377.9 47.937 1380.48 45.354 1383.68 45.354C1384.87 45.354 1386.02 45.723 1386.92 46.338L1391.31 43.673C1389.38 41.664 1386.67 40.434 1383.68 40.434C1377.78 40.434 1372.98 45.231 1372.98 51.135ZM1373.76 55.112C1374.21 56.219 1374.83 57.244 1375.6 58.146L1379.91 55.522C1379.01 54.743 1378.35 53.677 1378.06 52.488L1373.76 55.112ZM1378.56 51.135V51.422L1386.31 46.707C1385.53 46.256 1384.62 46.01 1383.68 46.01C1380.85 46.01 1378.56 48.306 1378.56 51.135ZM1378.64 52.16C1378.88 53.349 1379.58 54.415 1380.52 55.153L1388.72 50.151C1388.48 48.962 1387.82 47.896 1386.88 47.117L1378.64 52.16ZM1387.49 46.789C1388.4 47.568 1389.05 48.593 1389.3 49.823L1393.64 47.158C1393.19 46.051 1392.54 45.067 1391.8 44.165L1387.49 46.789ZM1407.28 45.846V46.502H1406.09C1403.59 46.502 1401.46 48.634 1401.46 51.135C1401.46 53.636 1403.59 55.768 1406.09 55.768H1407.28V56.424H1406.09C1403.22 56.424 1400.8 54.005 1400.8 51.135C1400.8 48.265 1403.22 45.846 1406.09 45.846H1407.28ZM1407.28 40.926H1406.09C1400.48 40.926 1395.88 45.518 1395.88 51.135C1395.88 56.752 1400.48 61.344 1406.09 61.344H1407.28V62H1406.09C1400.11 62 1395.23 57.121 1395.23 51.135C1395.23 45.149 1400.11 40.27 1406.09 40.27H1407.28V40.926ZM1412.8 40.926H1409.56V40.27H1412.8V33.3H1413.46V40.27H1418.38V33.3H1419.03V40.27H1422.27V40.926H1419.03V45.846H1422.27V46.502H1419.03V62H1418.38V46.502H1413.46V62H1412.8V46.502H1409.56V45.846H1412.8V40.926ZM1418.38 40.926H1413.46V45.846H1418.38V40.926ZM1437.44 33.956H1431.58V33.3H1449.54V33.956H1443.67V38.876H1449.54V39.532H1443.67V62H1443.02V39.532H1438.1V62H1437.44V39.532H1431.58V38.876H1437.44V33.956ZM1443.02 33.956H1438.1V38.876H1443.02V33.956ZM1459.48 62.492C1453.2 62.492 1448.12 57.408 1448.12 51.135C1448.12 44.862 1453.2 39.778 1459.48 39.778C1465.75 39.778 1470.83 44.862 1470.83 51.135C1470.83 57.408 1465.75 62.492 1459.48 62.492ZM1459.48 61.836C1465.38 61.836 1470.18 57.039 1470.18 51.135C1470.18 45.231 1465.38 40.434 1459.48 40.434C1453.57 40.434 1448.77 45.231 1448.77 51.135C1448.77 57.039 1453.57 61.836 1459.48 61.836ZM1459.48 56.916C1456.28 56.916 1453.69 54.333 1453.69 51.135C1453.69 47.937 1456.28 45.354 1459.48 45.354C1462.67 45.354 1465.26 47.937 1465.26 51.135C1465.26 54.333 1462.67 56.916 1459.48 56.916ZM1459.48 56.26C1462.3 56.26 1464.6 53.964 1464.6 51.135C1464.6 48.306 1462.3 46.01 1459.48 46.01C1456.65 46.01 1454.35 48.306 1454.35 51.135C1454.35 53.964 1456.65 56.26 1459.48 56.26ZM1487.85 47.65C1487.85 43.263 1484.57 39.696 1480.1 39.532V55.768C1484.57 55.604 1487.85 52.037 1487.85 47.65ZM1480.1 56.424V61.344C1487.56 61.18 1493.42 55.153 1493.42 47.65C1493.42 40.188 1487.56 34.12 1480.1 33.956V38.876C1484.98 39.04 1488.5 42.935 1488.5 47.65C1488.5 52.365 1484.98 56.26 1480.1 56.424ZM1473.87 62V33.3H1479.77C1487.72 33.3 1494.08 39.737 1494.08 47.65C1494.08 55.563 1487.72 62 1479.77 62H1473.87ZM1479.44 55.768V39.532H1474.52V55.768H1479.44ZM1479.44 56.424H1474.52V61.344H1479.44V56.424ZM1479.44 38.876V33.956H1474.52V38.876H1479.44ZM1507.32 62.492C1501.05 62.492 1495.97 57.408 1495.97 51.135C1495.97 44.862 1501.05 39.778 1507.32 39.778C1513.6 39.778 1518.68 44.862 1518.68 51.135C1518.68 57.408 1513.6 62.492 1507.32 62.492ZM1507.32 61.836C1513.23 61.836 1518.02 57.039 1518.02 51.135C1518.02 45.231 1513.23 40.434 1507.32 40.434C1501.42 40.434 1496.62 45.231 1496.62 51.135C1496.62 57.039 1501.42 61.836 1507.32 61.836ZM1507.32 56.916C1504.12 56.916 1501.54 54.333 1501.54 51.135C1501.54 47.937 1504.12 45.354 1507.32 45.354C1510.52 45.354 1513.1 47.937 1513.1 51.135C1513.1 54.333 1510.52 56.916 1507.32 56.916ZM1507.32 56.26C1510.15 56.26 1512.45 53.964 1512.45 51.135C1512.45 48.306 1510.15 46.01 1507.32 46.01C1504.49 46.01 1502.2 48.306 1502.2 51.135C1502.2 53.964 1504.49 56.26 1507.32 56.26ZM1536.99 39.532V45.928H1539.9C1541.71 45.928 1543.1 44.534 1543.1 42.73C1543.1 40.926 1541.71 39.532 1539.9 39.532H1536.99ZM1536.99 38.876H1539.9C1542.04 38.876 1543.76 40.598 1543.76 42.73C1543.76 44.862 1542.04 46.584 1539.9 46.584H1536.99V51.504H1539.9C1544.82 51.504 1548.68 47.65 1548.68 42.73C1548.68 37.81 1544.82 33.956 1539.9 33.956H1536.99V38.876ZM1531.42 52.16V62H1530.76V33.3H1539.9C1545.15 33.3 1549.33 37.482 1549.33 42.73C1549.33 47.978 1545.15 52.16 1539.9 52.16H1536.99V62H1536.34V52.16H1531.42ZM1531.42 39.532V45.928H1536.34V39.532H1531.42ZM1536.34 33.956H1531.42V38.876H1536.34V33.956ZM1536.34 46.584H1531.42V51.504H1536.34V46.584ZM1557.67 62V42.689C1555.45 44.042 1552.75 46.83 1552.75 51.709V62H1552.09V40.27H1552.75V47.732C1553.77 44.903 1555.37 43.304 1557.67 41.951V40.27H1558.32V41.582C1559.96 40.762 1561.72 40.352 1563.45 40.352V41.008C1561.72 41.008 1559.92 41.459 1558.32 42.32V49.044C1559.26 47.199 1561.23 45.928 1563.45 45.928V46.584C1560.58 46.584 1558.32 48.88 1558.32 51.709V62H1557.67ZM1575.59 62.492C1569.32 62.492 1564.23 57.408 1564.23 51.135C1564.23 44.862 1569.32 39.778 1575.59 39.778C1581.86 39.778 1586.95 44.862 1586.95 51.135C1586.95 57.408 1581.86 62.492 1575.59 62.492ZM1575.59 61.836C1581.49 61.836 1586.29 57.039 1586.29 51.135C1586.29 45.231 1581.49 40.434 1575.59 40.434C1569.69 40.434 1564.89 45.231 1564.89 51.135C1564.89 57.039 1569.69 61.836 1575.59 61.836ZM1575.59 56.916C1572.39 56.916 1569.81 54.333 1569.81 51.135C1569.81 47.937 1572.39 45.354 1575.59 45.354C1578.79 45.354 1581.37 47.937 1581.37 51.135C1581.37 54.333 1578.79 56.916 1575.59 56.916ZM1575.59 56.26C1578.42 56.26 1580.71 53.964 1580.71 51.135C1580.71 48.306 1578.42 46.01 1575.59 46.01C1572.76 46.01 1570.46 48.306 1570.46 51.135C1570.46 53.964 1572.76 56.26 1575.59 56.26ZM1596.61 40.27V63.722C1596.61 67.699 1593.33 71.02 1589.35 71.02H1586.15V70.364H1589.35C1593 70.364 1595.95 67.371 1595.95 63.722V40.27H1596.61ZM1586.15 64.788H1589.35C1589.93 64.788 1590.38 64.296 1590.38 63.722V40.27H1591.03V63.722C1591.03 64.624 1590.34 65.444 1589.35 65.444H1586.15V64.788ZM1591.03 31.25V38.138H1590.38V31.25H1591.03ZM1595.95 38.138V31.25H1596.61V38.138H1595.95ZM1599.55 51.135C1599.55 44.862 1604.63 39.778 1610.9 39.778C1615.91 39.778 1620.13 42.976 1621.65 47.486L1608.32 55.563C1609.1 56.014 1609.96 56.26 1610.9 56.26C1612.95 56.26 1614.72 55.03 1615.54 53.308L1616.15 53.595C1615.25 55.563 1613.24 56.916 1610.9 56.916C1609.71 56.916 1608.61 56.547 1607.71 55.932L1603.28 58.638C1605.2 60.606 1607.91 61.836 1610.9 61.836C1615.17 61.836 1618.9 59.294 1620.62 55.645L1621.19 55.932C1619.39 59.827 1615.45 62.492 1610.9 62.492C1604.63 62.492 1599.55 57.408 1599.55 51.135ZM1600.2 51.135C1600.2 52.324 1600.41 53.431 1600.74 54.497L1605.16 51.791C1605.12 51.586 1605.12 51.34 1605.12 51.135C1605.12 47.937 1607.71 45.354 1610.9 45.354C1612.09 45.354 1613.24 45.723 1614.14 46.338L1618.53 43.673C1616.6 41.664 1613.9 40.434 1610.9 40.434C1605 40.434 1600.2 45.231 1600.2 51.135ZM1600.98 55.112C1601.43 56.219 1602.05 57.244 1602.83 58.146L1607.13 55.522C1606.23 54.743 1605.57 53.677 1605.29 52.488L1600.98 55.112ZM1605.78 51.135V51.422L1613.53 46.707C1612.75 46.256 1611.85 46.01 1610.9 46.01C1608.07 46.01 1605.78 48.306 1605.78 51.135ZM1605.86 52.16C1606.11 53.349 1606.8 54.415 1607.75 55.153L1615.95 50.151C1615.7 48.962 1615.04 47.896 1614.1 47.117L1605.86 52.16ZM1614.72 46.789C1615.62 47.568 1616.27 48.593 1616.52 49.823L1620.87 47.158C1620.42 46.051 1619.76 45.067 1619.02 44.165L1614.72 46.789ZM1634.5 45.846V46.502H1633.31C1630.81 46.502 1628.68 48.634 1628.68 51.135C1628.68 53.636 1630.81 55.768 1633.31 55.768H1634.5V56.424H1633.31C1630.44 56.424 1628.03 54.005 1628.03 51.135C1628.03 48.265 1630.44 45.846 1633.31 45.846H1634.5ZM1634.5 40.926H1633.31C1627.7 40.926 1623.11 45.518 1623.11 51.135C1623.11 56.752 1627.7 61.344 1633.31 61.344H1634.5V62H1633.31C1627.33 62 1622.45 57.121 1622.45 51.135C1622.45 45.149 1627.33 40.27 1633.31 40.27H1634.5V40.926ZM1640.02 40.926H1636.78V40.27H1640.02V33.3H1640.68V40.27H1645.6V33.3H1646.25V40.27H1649.49V40.926H1646.25V45.846H1649.49V46.502H1646.25V62H1645.6V46.502H1640.68V62H1640.02V46.502H1636.78V45.846H1640.02V40.926ZM1645.6 40.926H1640.68V45.846H1645.6V40.926ZM1664.66 33.956H1658.8V33.3H1676.76V33.956H1670.9V38.876H1676.76V39.532H1670.9V62H1670.24V39.532H1665.32V62H1664.66V39.532H1658.8V38.876H1664.66V33.956ZM1670.24 33.956H1665.32V38.876H1670.24V33.956ZM1686.7 62.492C1680.42 62.492 1675.34 57.408 1675.34 51.135C1675.34 44.862 1680.42 39.778 1686.7 39.778C1692.97 39.778 1698.05 44.862 1698.05 51.135C1698.05 57.408 1692.97 62.492 1686.7 62.492ZM1686.7 61.836C1692.6 61.836 1697.4 57.039 1697.4 51.135C1697.4 45.231 1692.6 40.434 1686.7 40.434C1680.79 40.434 1676 45.231 1676 51.135C1676 57.039 1680.79 61.836 1686.7 61.836ZM1686.7 56.916C1683.5 56.916 1680.92 54.333 1680.92 51.135C1680.92 47.937 1683.5 45.354 1686.7 45.354C1689.9 45.354 1692.48 47.937 1692.48 51.135C1692.48 54.333 1689.9 56.916 1686.7 56.916ZM1686.7 56.26C1689.53 56.26 1691.82 53.964 1691.82 51.135C1691.82 48.306 1689.53 46.01 1686.7 46.01C1683.87 46.01 1681.57 48.306 1681.57 51.135C1681.57 53.964 1683.87 56.26 1686.7 56.26ZM1715.07 47.65C1715.07 43.263 1711.79 39.696 1707.32 39.532V55.768C1711.79 55.604 1715.07 52.037 1715.07 47.65ZM1707.32 56.424V61.344C1714.78 61.18 1720.64 55.153 1720.64 47.65C1720.64 40.188 1714.78 34.12 1707.32 33.956V38.876C1712.2 39.04 1715.72 42.935 1715.72 47.65C1715.72 52.365 1712.2 56.26 1707.32 56.424ZM1701.09 62V33.3H1706.99C1714.94 33.3 1721.3 39.737 1721.3 47.65C1721.3 55.563 1714.94 62 1706.99 62H1701.09ZM1706.66 55.768V39.532H1701.74V55.768H1706.66ZM1706.66 56.424H1701.74V61.344H1706.66V56.424ZM1706.66 38.876V33.956H1701.74V38.876H1706.66ZM1734.54 62.492C1728.27 62.492 1723.19 57.408 1723.19 51.135C1723.19 44.862 1728.27 39.778 1734.54 39.778C1740.82 39.778 1745.9 44.862 1745.9 51.135C1745.9 57.408 1740.82 62.492 1734.54 62.492ZM1734.54 61.836C1740.45 61.836 1745.25 57.039 1745.25 51.135C1745.25 45.231 1740.45 40.434 1734.54 40.434C1728.64 40.434 1723.84 45.231 1723.84 51.135C1723.84 57.039 1728.64 61.836 1734.54 61.836ZM1734.54 56.916C1731.35 56.916 1728.76 54.333 1728.76 51.135C1728.76 47.937 1731.35 45.354 1734.54 45.354C1737.74 45.354 1740.33 47.937 1740.33 51.135C1740.33 54.333 1737.74 56.916 1734.54 56.916ZM1734.54 56.26C1737.37 56.26 1739.67 53.964 1739.67 51.135C1739.67 48.306 1737.37 46.01 1734.54 46.01C1731.72 46.01 1729.42 48.306 1729.42 51.135C1729.42 53.964 1731.72 56.26 1734.54 56.26ZM1764.21 39.532V45.928H1767.13C1768.93 45.928 1770.32 44.534 1770.32 42.73C1770.32 40.926 1768.93 39.532 1767.13 39.532H1764.21ZM1764.21 38.876H1767.13C1769.26 38.876 1770.98 40.598 1770.98 42.73C1770.98 44.862 1769.26 46.584 1767.13 46.584H1764.21V51.504H1767.13C1772.05 51.504 1775.9 47.65 1775.9 42.73C1775.9 37.81 1772.05 33.956 1767.13 33.956H1764.21V38.876ZM1758.64 52.16V62H1757.98V33.3H1767.13C1772.37 33.3 1776.56 37.482 1776.56 42.73C1776.56 47.978 1772.37 52.16 1767.13 52.16H1764.21V62H1763.56V52.16H1758.64ZM1758.64 39.532V45.928H1763.56V39.532H1758.64ZM1763.56 33.956H1758.64V38.876H1763.56V33.956ZM1763.56 46.584H1758.64V51.504H1763.56V46.584ZM1784.89 62V42.689C1782.67 44.042 1779.97 46.83 1779.97 51.709V62H1779.31V40.27H1779.97V47.732C1780.99 44.903 1782.59 43.304 1784.89 41.951V40.27H1785.54V41.582C1787.18 40.762 1788.95 40.352 1790.67 40.352V41.008C1788.95 41.008 1787.14 41.459 1785.54 42.32V49.044C1786.49 47.199 1788.45 45.928 1790.67 45.928V46.584C1787.8 46.584 1785.54 48.88 1785.54 51.709V62H1784.89ZM1802.81 62.492C1796.54 62.492 1791.45 57.408 1791.45 51.135C1791.45 44.862 1796.54 39.778 1802.81 39.778C1809.08 39.778 1814.17 44.862 1814.17 51.135C1814.17 57.408 1809.08 62.492 1802.81 62.492ZM1802.81 61.836C1808.71 61.836 1813.51 57.039 1813.51 51.135C1813.51 45.231 1808.71 40.434 1802.81 40.434C1796.91 40.434 1792.11 45.231 1792.11 51.135C1792.11 57.039 1796.91 61.836 1802.81 61.836ZM1802.81 56.916C1799.61 56.916 1797.03 54.333 1797.03 51.135C1797.03 47.937 1799.61 45.354 1802.81 45.354C1806.01 45.354 1808.59 47.937 1808.59 51.135C1808.59 54.333 1806.01 56.916 1802.81 56.916ZM1802.81 56.26C1805.64 56.26 1807.94 53.964 1807.94 51.135C1807.94 48.306 1805.64 46.01 1802.81 46.01C1799.98 46.01 1797.69 48.306 1797.69 51.135C1797.69 53.964 1799.98 56.26 1802.81 56.26ZM1823.83 40.27V63.722C1823.83 67.699 1820.55 71.02 1816.57 71.02H1813.38V70.364H1816.57C1820.22 70.364 1823.18 67.371 1823.18 63.722V40.27H1823.83ZM1813.38 64.788H1816.57C1817.15 64.788 1817.6 64.296 1817.6 63.722V40.27H1818.26V63.722C1818.26 64.624 1817.56 65.444 1816.57 65.444H1813.38V64.788ZM1818.26 31.25V38.138H1817.6V31.25H1818.26ZM1823.18 38.138V31.25H1823.83V38.138H1823.18ZM1826.77 51.135C1826.77 44.862 1831.85 39.778 1838.13 39.778C1843.13 39.778 1847.35 42.976 1848.87 47.486L1835.54 55.563C1836.32 56.014 1837.18 56.26 1838.13 56.26C1840.18 56.26 1841.94 55.03 1842.76 53.308L1843.37 53.595C1842.47 55.563 1840.46 56.916 1838.13 56.916C1836.94 56.916 1835.83 56.547 1834.93 55.932L1830.5 58.638C1832.43 60.606 1835.13 61.836 1838.13 61.836C1842.39 61.836 1846.12 59.294 1847.84 55.645L1848.42 55.932C1846.61 59.827 1842.68 62.492 1838.13 62.492C1831.85 62.492 1826.77 57.408 1826.77 51.135ZM1827.42 51.135C1827.42 52.324 1827.63 53.431 1827.96 54.497L1832.39 51.791C1832.34 51.586 1832.34 51.34 1832.34 51.135C1832.34 47.937 1834.93 45.354 1838.13 45.354C1839.31 45.354 1840.46 45.723 1841.36 46.338L1845.75 43.673C1843.82 41.664 1841.12 40.434 1838.13 40.434C1832.22 40.434 1827.42 45.231 1827.42 51.135ZM1828.2 55.112C1828.65 56.219 1829.27 57.244 1830.05 58.146L1834.35 55.522C1833.45 54.743 1832.8 53.677 1832.51 52.488L1828.2 55.112ZM1833 51.135V51.422L1840.75 46.707C1839.97 46.256 1839.07 46.01 1838.13 46.01C1835.3 46.01 1833 48.306 1833 51.135ZM1833.08 52.16C1833.33 53.349 1834.03 54.415 1834.97 55.153L1843.17 50.151C1842.92 48.962 1842.27 47.896 1841.32 47.117L1833.08 52.16ZM1841.94 46.789C1842.84 47.568 1843.5 48.593 1843.74 49.823L1848.09 47.158C1847.64 46.051 1846.98 45.067 1846.24 44.165L1841.94 46.789ZM1861.73 45.846V46.502H1860.54C1858.04 46.502 1855.9 48.634 1855.9 51.135C1855.9 53.636 1858.04 55.768 1860.54 55.768H1861.73V56.424H1860.54C1857.67 56.424 1855.25 54.005 1855.25 51.135C1855.25 48.265 1857.67 45.846 1860.54 45.846H1861.73ZM1861.73 40.926H1860.54C1854.92 40.926 1850.33 45.518 1850.33 51.135C1850.33 56.752 1854.92 61.344 1860.54 61.344H1861.73V62H1860.54C1854.55 62 1849.67 57.121 1849.67 51.135C1849.67 45.149 1854.55 40.27 1860.54 40.27H1861.73V40.926ZM1867.24 40.926H1864.01V40.27H1867.24V33.3H1867.9V40.27H1872.82V33.3H1873.48V40.27H1876.72V40.926H1873.48V45.846H1876.72V46.502H1873.48V62H1872.82V46.502H1867.9V62H1867.24V46.502H1864.01V45.846H1867.24V40.926ZM1872.82 40.926H1867.9V45.846H1872.82V40.926ZM1891.89 33.956H1886.02V33.3H1903.98V33.956H1898.12V38.876H1903.98V39.532H1898.12V62H1897.46V39.532H1892.54V62H1891.89V39.532H1886.02V38.876H1891.89V33.956ZM1897.46 33.956H1892.54V38.876H1897.46V33.956ZM1913.92 62.492C1907.65 62.492 1902.56 57.408 1902.56 51.135C1902.56 44.862 1907.65 39.778 1913.92 39.778C1920.19 39.778 1925.28 44.862 1925.28 51.135C1925.28 57.408 1920.19 62.492 1913.92 62.492ZM1913.92 61.836C1919.82 61.836 1924.62 57.039 1924.62 51.135C1924.62 45.231 1919.82 40.434 1913.92 40.434C1908.02 40.434 1903.22 45.231 1903.22 51.135C1903.22 57.039 1908.02 61.836 1913.92 61.836ZM1913.92 56.916C1910.72 56.916 1908.14 54.333 1908.14 51.135C1908.14 47.937 1910.72 45.354 1913.92 45.354C1917.12 45.354 1919.7 47.937 1919.7 51.135C1919.7 54.333 1917.12 56.916 1913.92 56.916ZM1913.92 56.26C1916.75 56.26 1919.04 53.964 1919.04 51.135C1919.04 48.306 1916.75 46.01 1913.92 46.01C1911.09 46.01 1908.79 48.306 1908.79 51.135C1908.79 53.964 1911.09 56.26 1913.92 56.26ZM1942.29 47.65C1942.29 43.263 1939.01 39.696 1934.54 39.532V55.768C1939.01 55.604 1942.29 52.037 1942.29 47.65ZM1934.54 56.424V61.344C1942 61.18 1947.87 55.153 1947.87 47.65C1947.87 40.188 1942 34.12 1934.54 33.956V38.876C1939.42 39.04 1942.95 42.935 1942.95 47.65C1942.95 52.365 1939.42 56.26 1934.54 56.424ZM1928.31 62V33.3H1934.21C1942.17 33.3 1948.52 39.737 1948.52 47.65C1948.52 55.563 1942.17 62 1934.21 62H1928.31ZM1933.88 55.768V39.532H1928.96V55.768H1933.88ZM1933.88 56.424H1928.96V61.344H1933.88V56.424ZM1933.88 38.876V33.956H1928.96V38.876H1933.88ZM1961.77 62.492C1955.49 62.492 1950.41 57.408 1950.41 51.135C1950.41 44.862 1955.49 39.778 1961.77 39.778C1968.04 39.778 1973.12 44.862 1973.12 51.135C1973.12 57.408 1968.04 62.492 1961.77 62.492ZM1961.77 61.836C1967.67 61.836 1972.47 57.039 1972.47 51.135C1972.47 45.231 1967.67 40.434 1961.77 40.434C1955.86 40.434 1951.06 45.231 1951.06 51.135C1951.06 57.039 1955.86 61.836 1961.77 61.836ZM1961.77 56.916C1958.57 56.916 1955.98 54.333 1955.98 51.135C1955.98 47.937 1958.57 45.354 1961.77 45.354C1964.96 45.354 1967.55 47.937 1967.55 51.135C1967.55 54.333 1964.96 56.916 1961.77 56.916ZM1961.77 56.26C1964.59 56.26 1966.89 53.964 1966.89 51.135C1966.89 48.306 1964.59 46.01 1961.77 46.01C1958.94 46.01 1956.64 48.306 1956.64 51.135C1956.64 53.964 1958.94 56.26 1961.77 56.26Z" fill="white"/>
</g>
<defs>
<clipPath id="clip0_15_19">
<rect width="1940" height="343" fill="white"/>
</clipPath>
</defs>
</svg>
